<?xml version="1.0" encoding="UTF-8"?>
<svg id="Capa_1" data-name="Capa 1" xmlns="http://www.w3.org/2000/svg" viewBox="0 0 2000 2000">
  <defs>
    <style>
      .cls-1 {
        fill: #fff;
      }
    </style>
  </defs>
  <rect width="2000" height="2000"/>
  <g>
    <g>
      <path class="cls-1" d="M1279.77,746.42v-51.95c0-31.13-8.88-56.23-26.74-75.3-17.76-18.96-42.2-28.5-73.32-28.5s-54.91,9.54-72.67,28.5c-17.87,19.07-26.74,44.17-26.74,75.3v129c0,17.87.66,31.79,1.86,41.87,1.21,10.19,4.71,18.31,10.41,24.55,5.59,6.14,15.45,11.95,29.26,17.43,13.81,5.37,33.1,12.06,57.87,19.95,68.17,20.82,120.78,38.47,157.94,53.05,37.05,14.58,63.57,30.25,79.68,47.13,16,16.77,25.65,38.47,28.94,65.22,3.18,26.74,4.82,63.02,4.82,109.05v103.8c0,81.98-24.44,148.29-73.43,198.71-48.88,50.42-114.97,75.63-197.94,75.63-64.34,0-118.48-15.45-162.54-46.47v-279.71h63.13v51.84c0,31.13,8.88,56.23,26.74,75.19,17.76,19.07,41.98,28.61,72.67,28.61s55.57-9.54,73.32-28.61c17.87-18.96,26.74-44.06,26.74-75.19v-103.8c0-17.87-.66-31.79-1.86-41.98-1.21-10.08-4.71-18.19-10.41-24.44-5.7-6.14-15.45-11.95-29.26-17.43-13.81-5.48-33.32-12.06-58.53-20.06-67.74-20.72-120.13-38.36-157.28-52.94-1.75-.66-3.51-1.43-5.26-2.08V466.38c44.06-30.91,98.21-46.25,162.54-46.25,82.97,0,149.06,25.1,197.94,75.3,48.99,50.09,73.43,116.51,73.43,199.04v51.95h-171.31Z"/>
      <path class="cls-1" d="M981.97,465.97v343.5h-63.13v-86.04c0-8.11.22-16,.77-23.78v-5.15c0-31.13-8.88-56.23-26.63-75.19-17.87-19.07-42.31-28.61-73.43-28.61s-55.57,9.54-73.43,28.61c-17.76,18.96-26.63,44.06-26.63,75.19v611.04c0,31.13,8.88,56.23,26.63,75.3,17.87,18.96,42.31,28.5,73.43,28.5s55.57-9.54,73.43-28.5c14.91-16,23.57-36.39,25.87-60.94.55-4.6.77-9.43.77-14.36v-51.84h62.36v280.04c-43.95,30.8-98.1,46.14-162.43,46.14-82.09,0-147.64-25.21-196.85-75.63-49.21-50.42-73.76-116.62-73.76-198.71v-611.04c0-82.53,24.55-148.84,73.76-199.04,49.21-50.2,114.75-75.3,196.85-75.3,64.34,0,118.48,15.23,162.43,45.81Z"/>
    </g>
    <path class="cls-1" d="M1028.43,840.21v206.92c-28.97-8.14-51.88-16.6-68.61-25.43-16.08-8.45-41.58-22.54-41.57-43.03.03-46.15.05-92.31.05-138.46h110.14Z"/>
  </g>
</svg>